# xmcd
#
# Track frame offsets:
#	150
#	18612
#	45677
#	63415
#	78065
#	100337
#	108712
#	152100
#	188777
#	202975
#	236617
#	249715
#
# Disc length: 3766 seconds
#
# Revision: 1
# Processed by: cddbd v1.5.1PL0 Copyright (c) Steve Scherf et al.
# Submitted via: CDex 1.50Beta5
#
DISCID=9d0eb40c
DTITLE=不明 - イントゥアドリーム
DYEAR=1900
DGENRE=Classical
TTITLE0=Johann Scbastian Bach/Bach Violin Concert1 #1
TTITLE1=Robert Schumann/Andante
TTITLE2=Robert Schumann/Bach Violin Concert1 #3
TTITLE3=Robert Schumann/Traumerei-Dreaming(Sceane from Childhood, Op. 15)
TTITLE4=Edvard Grieg/The Return of Peer Gynt;Solveig's Song(Peer Gynt,Op.23)
TTITLE5=Robert Schumann/Shumann むきになって
TTITLE6=Peter Tchaikovsky/チャイコフスキー 弦楽セレナーデハ長調
TTITLE7=Camille Saint-Saens/Elegia Larghetto elegiaco
TTITLE8=Camille Saint-SaensMozart/サンサーンス 白鳥
TTITLE9=Wolfgang Amadeus Mozart/Concerto for piano and Orchestra No.21 in C major K.467Andante
TTITLE10=Robert Schumann/Shumann 子どもは眠る
TTITLE11=Johann Pachelbel/Pachelbel Canon
EXTD=
EXTT0=
EXTT1=
EXTT2=
EXTT3=
EXTT4=
EXTT5=
EXTT6=
EXTT7=
EXTT8=
EXTT9=
EXTT10=
EXTT11=
PLAYORDER=
